<svg version="1.0" preserveAspectRatio="xMidYMid meet" viewBox="77.85000000000001 131.0999968536 213.74999999999997 124.49999701200001" zoomAndPan="magnify" xmlns:xlink="http://www.w3.org/1999/xlink" xmlns="http://www.w3.org/2000/svg" style="max-height: 500px" width="213.74999999999997" height="124.49999701200001"><defs><g/><clipPath id="7a719caf7d"><path clip-rule="nonzero" d="M 184 146 L 274 146 L 274 248.410156 L 184 248.410156 Z M 184 146"/></clipPath><clipPath id="91c4fcb979"><path clip-rule="nonzero" d="M 134.542969 178 L 148 178 L 148 191 L 134.542969 191 Z M 134.542969 178"/></clipPath><clipPath id="e119f06b23"><path clip-rule="nonzero" d="M 95.0625 223.828125 L 210.363281 223.828125 L 210.363281 238.261719 L 95.0625 238.261719 Z M 95.0625 223.828125"/></clipPath><clipPath id="6f17f64dde"><path clip-rule="nonzero" d="M 95.097656 223.828125 L 210.328125 223.828125 L 210.328125 238.078125 L 95.097656 238.078125 Z M 95.097656 223.828125"/></clipPath></defs><g clip-path="url(#7a719caf7d)"><path fill-rule="nonzero" fill-opacity="1" d="M 184.636719 160.628906 C 184.636719 160.628906 222.816406 142.84375 249.121094 170.269531 C 275.429688 197.691406 235.390625 248.074219 235.390625 248.074219 C 235.390625 248.074219 262.8125 236.203125 272.078125 197.320312 C 281.34375 158.398438 227.242188 126.917969 184.636719 160.628906 Z M 184.636719 160.628906" fill="#dd0038"/></g><path fill-rule="nonzero" fill-opacity="1" d="M 185.753906 168.035156 C 185.753906 168.035156 204.65625 160.257812 223.558594 165.800781 C 242.460938 171.34375 249.496094 177.300781 249.496094 177.300781 C 249.496094 177.300781 235.804688 168.777344 213.175781 172.5 C 190.59375 176.222656 180.953125 187.683594 180.953125 187.683594 C 180.953125 187.683594 175.742188 177.671875 185.753906 168.035156 Z M 185.753906 168.035156" fill="#ffffff"/><path fill-rule="nonzero" fill-opacity="1" d="M 190.921875 187.683594 C 190.921875 187.683594 207.882812 174.652344 227.902344 178.746094 C 247.921875 182.84375 250.570312 192.523438 252.058594 198.066406 C 253.546875 203.605469 250.941406 208.445312 250.941406 208.445312 C 250.941406 208.445312 254.292969 172.128906 190.921875 187.683594 Z M 190.921875 187.683594" fill="#dd0038"/><g clip-path="url(#91c4fcb979)"><path fill-rule="nonzero" fill-opacity="1" d="M 142.941406 178.25 C 142.941406 178.25 143.851562 178.25 145.835938 182.964844 C 147.820312 187.683594 147.53125 189.667969 147.53125 189.667969 C 147.53125 189.667969 134.542969 192.8125 134.957031 186.773438 C 135.328125 180.734375 142.941406 178.25 142.941406 178.25 Z M 142.941406 178.25" fill="#dd0038"/></g><path fill-rule="nonzero" fill-opacity="1" d="M 161.925781 157.15625 C 161.925781 157.15625 160.480469 163.195312 156.671875 168.695312 C 152.867188 174.199219 146.332031 176.804688 146.332031 176.804688 C 169.125 171.550781 161.925781 157.15625 161.925781 157.15625 Z M 169 162.53125 C 169 162.53125 167.675781 170.019531 162.589844 174.445312 C 157.460938 178.914062 150.550781 179.039062 150.550781 179.039062 C 150.550781 179.039062 169.953125 181.808594 171.109375 173.785156 C 172.269531 165.800781 169 162.53125 169 162.53125 Z M 161.800781 182.261719 C 155.804688 182.347656 151.628906 185.035156 150.675781 185.40625 C 162.300781 181.851562 174.085938 189.792969 174.085938 189.792969 C 174.085938 189.792969 172.640625 183.503906 164.65625 182.46875 C 163.707031 182.304688 162.710938 182.261719 161.800781 182.261719 Z M 161.800781 182.261719" fill="#ffffff"/><g clip-path="url(#e119f06b23)"><path fill-rule="nonzero" fill-opacity="1" d="M 95.0625 223.828125 L 210.371094 223.828125 L 210.371094 238.261719 L 95.0625 238.261719 Z M 95.0625 223.828125" fill="#000000"/></g><g clip-path="url(#6f17f64dde)"><path stroke-miterlimit="4" stroke-opacity="1" stroke-width="2" stroke="#dd0038" d="M 0.000998926 -0.0010756 L 153.641634 -0.0010756 L 153.641634 19.233301 L 0.000998926 19.233301 Z M 0.000998926 -0.0010756" stroke-linejoin="miter" fill="none" transform="matrix(0.75, 0, 0, 0.75, 95.096907, 223.828932)" stroke-linecap="butt"/></g><g fill-opacity="1" fill="#ffffff"><g transform="translate(93.652726, 219.849156)"><g><path d="M 17.140625 0.609375 C 15.640625 0.609375 13.492188 -0.710938 10.703125 -3.359375 L 6.265625 -7.84375 L 6.265625 -7.625 L 6.25 0.15625 C 6.25 1.144531 5.816406 1.640625 4.953125 1.640625 C 4.390625 1.640625 3.9375 1.390625 3.59375 0.890625 C 3.320312 0.484375 3.1875 0.0390625 3.1875 -0.4375 C 3.1875 -2.75 3.253906 -6.210938 3.390625 -10.828125 C 3.523438 -15.453125 3.59375 -18.921875 3.59375 -21.234375 C 3.59375 -21.660156 3.734375 -22.019531 4.015625 -22.3125 C 4.304688 -22.613281 4.660156 -22.765625 5.078125 -22.765625 C 5.492188 -22.765625 5.84375 -22.613281 6.125 -22.3125 C 6.414062 -22.019531 6.5625 -21.660156 6.5625 -21.234375 C 6.5625 -20.273438 6.5 -18.78125 6.375 -16.75 C 6.257812 -14.78125 6.207031 -13.273438 6.21875 -12.234375 C 7.539062 -13.492188 9.039062 -15.078125 10.71875 -16.984375 L 14.984375 -21.9375 C 15.328125 -22.320312 15.707031 -22.515625 16.125 -22.515625 C 16.519531 -22.515625 16.867188 -22.363281 17.171875 -22.0625 C 17.484375 -21.769531 17.640625 -21.410156 17.640625 -20.984375 C 17.640625 -20.328125 16.359375 -18.582031 13.796875 -15.75 C 12.035156 -13.8125 10.210938 -11.914062 8.328125 -10.0625 C 9.515625 -8.8125 11.378906 -7.019531 13.921875 -4.6875 L 15.484375 -3.375 C 16.046875 -2.9375 16.65625 -2.609375 17.3125 -2.390625 C 18.09375 -2.128906 18.484375 -1.640625 18.484375 -0.921875 C 18.484375 -0.585938 18.378906 -0.265625 18.171875 0.046875 C 17.910156 0.421875 17.566406 0.609375 17.140625 0.609375 Z M 17.140625 0.609375"/></g></g></g><g fill-opacity="1" fill="#ffffff"><g transform="translate(112.257099, 219.849156)"><g><path d="M 10.09375 -7.0625 C 8.75 -6.925781 6.351562 -6.859375 2.90625 -6.859375 C 2.070312 -6.859375 1.65625 -7.242188 1.65625 -8.015625 C 1.65625 -8.785156 2.070312 -9.171875 2.90625 -9.171875 C 3.6875 -9.171875 4.859375 -9.203125 6.421875 -9.265625 C 7.984375 -9.335938 9.160156 -9.375 9.953125 -9.375 C 10.828125 -9.375 11.265625 -8.988281 11.265625 -8.21875 C 11.265625 -7.539062 10.875 -7.15625 10.09375 -7.0625 Z M 10.09375 -7.0625"/></g></g></g><g fill-opacity="1" fill="#ffffff"><g transform="translate(124.942577, 219.849156)"><g><path d="M 6.140625 -8.734375 C 5.859375 -8.734375 5.253906 -8.796875 4.328125 -8.921875 C 4.242188 -7.421875 4.203125 -4.800781 4.203125 -1.0625 C 4.203125 -0.664062 4.070312 -0.328125 3.8125 -0.046875 C 3.5625 0.222656 3.242188 0.359375 2.859375 0.359375 C 2.460938 0.359375 2.132812 0.222656 1.875 -0.046875 C 1.613281 -0.328125 1.484375 -0.664062 1.484375 -1.0625 L 1.484375 -5.421875 C 1.484375 -6.878906 1.570312 -8.929688 1.75 -11.578125 C 1.945312 -14.441406 2.054688 -16.492188 2.078125 -17.734375 L 2.078125 -19.796875 C 2.078125 -20.773438 2.140625 -21.488281 2.265625 -21.9375 C 2.492188 -22.800781 2.976562 -23.175781 3.71875 -23.0625 C 4.03125 -23.164062 4.476562 -23.238281 5.0625 -23.28125 C 5.65625 -23.332031 6.378906 -23.359375 7.234375 -23.359375 C 9.046875 -23.359375 10.742188 -22.738281 12.328125 -21.5 C 14.066406 -20.132812 14.9375 -18.488281 14.9375 -16.5625 C 14.9375 -14.101562 14.007812 -12.144531 12.15625 -10.6875 C 10.488281 -9.382812 8.484375 -8.734375 6.140625 -8.734375 Z M 6.890625 -20.53125 C 6.453125 -20.53125 6.0625 -20.519531 5.71875 -20.5 C 5.375 -20.476562 5.082031 -20.453125 4.84375 -20.421875 L 4.8125 -17.6875 L 4.5 -11.765625 L 6.140625 -11.5625 C 7.804688 -11.5625 9.207031 -11.984375 10.34375 -12.828125 C 11.59375 -13.753906 12.21875 -15 12.21875 -16.5625 C 12.21875 -17.675781 11.625 -18.632812 10.4375 -19.4375 C 9.332031 -20.164062 8.148438 -20.53125 6.890625 -20.53125 Z M 6.890625 -20.53125"/></g></g></g><g fill-opacity="1" fill="#ffffff"><g transform="translate(140.795698, 219.849156)"><g><path d="M 15.234375 -0.609375 C 14.117188 -0.0859375 12.363281 0.378906 9.96875 0.796875 C 7.75 1.191406 5.941406 1.390625 4.546875 1.390625 C 3.546875 1.390625 2.828125 1.234375 2.390625 0.921875 C 1.796875 0.503906 1.5 -0.257812 1.5 -1.375 L 1.796875 -6.296875 C 2.054688 -10.828125 2.1875 -15.859375 2.1875 -21.390625 C 2.1875 -21.816406 2.328125 -22.175781 2.609375 -22.46875 C 2.890625 -22.769531 3.238281 -22.921875 3.65625 -22.921875 C 4.082031 -22.921875 4.4375 -22.769531 4.71875 -22.46875 C 5 -22.175781 5.140625 -21.816406 5.140625 -21.390625 C 5.140625 -15.796875 5.007812 -10.703125 4.75 -6.109375 L 4.546875 -3.84375 C 4.472656 -3.019531 4.441406 -2.296875 4.453125 -1.671875 C 7.046875 -1.640625 10.320312 -2.25 14.28125 -3.5 C 14.445312 -3.539062 14.601562 -3.5625 14.75 -3.5625 C 15.175781 -3.5625 15.535156 -3.394531 15.828125 -3.0625 C 16.066406 -2.757812 16.1875 -2.40625 16.1875 -2 C 16.1875 -1.375 15.867188 -0.910156 15.234375 -0.609375 Z M 15.234375 -0.609375"/></g></g></g><g fill-opacity="1" fill="#ffffff"><g transform="translate(157.570859, 219.849156)"><g><path d="M 18.59375 0.453125 C 17.675781 0.453125 16.878906 -0.71875 16.203125 -3.0625 C 15.953125 -3.957031 15.628906 -5.519531 15.234375 -7.75 C 14.222656 -7.601562 12.898438 -7.351562 11.265625 -7 L 7.3125 -6.1875 C 6.820312 -4.882812 5.972656 -2.984375 4.765625 -0.484375 C 4.453125 0.0664062 4.023438 0.34375 3.484375 0.34375 C 3.085938 0.34375 2.734375 0.203125 2.421875 -0.078125 C 2.109375 -0.367188 1.953125 -0.726562 1.953125 -1.15625 C 1.953125 -1.632812 2.695312 -3.445312 4.1875 -6.59375 C 4.019531 -6.84375 3.9375 -7.140625 3.9375 -7.484375 C 3.9375 -8.285156 4.421875 -8.800781 5.390625 -9.03125 C 6.523438 -11.144531 7.957031 -13.582031 9.6875 -16.34375 C 12.03125 -20.101562 13.488281 -21.984375 14.0625 -21.984375 C 14.84375 -21.984375 15.378906 -21.4375 15.671875 -20.34375 L 16.609375 -15.34375 L 18.828125 -5.015625 L 19.671875 -2.65625 C 19.960938 -1.851562 20.109375 -1.320312 20.109375 -1.0625 C 20.109375 -0.632812 19.953125 -0.273438 19.640625 0.015625 C 19.335938 0.304688 18.988281 0.453125 18.59375 0.453125 Z M 13.34375 -16.546875 L 9.078125 -9.6875 C 10.285156 -10 12.109375 -10.375 14.546875 -10.8125 Z M 13.34375 -16.546875"/></g></g></g><g fill-opacity="1" fill="#ffffff"><g transform="translate(179.84851, 219.849156)"><g><path d="M 17.421875 -19.015625 C 17.191406 -18.640625 16.875 -18.0625 16.46875 -17.28125 L 13.921875 -10.953125 C 12.929688 -8.585938 12 -6.519531 11.125 -4.75 L 9.265625 -1.421875 L 8.46875 0.171875 C 8.144531 0.753906 7.707031 1.046875 7.15625 1.046875 C 6.769531 1.046875 6.414062 0.898438 6.09375 0.609375 C 5.78125 0.316406 5.625 -0.0390625 5.625 -0.46875 C 5.625 -0.800781 6.085938 -1.851562 7.015625 -3.625 L 8.84375 -6.96875 C 7.070312 -9.257812 5.921875 -11.066406 5.390625 -12.390625 C 4.953125 -13.503906 4.210938 -14.847656 3.171875 -16.421875 C 1.742188 -18.554688 0.90625 -19.847656 0.65625 -20.296875 C 0.507812 -20.566406 0.4375 -20.832031 0.4375 -21.09375 C 0.4375 -21.519531 0.59375 -21.878906 0.90625 -22.171875 C 1.21875 -22.460938 1.570312 -22.609375 1.96875 -22.609375 C 2.445312 -22.609375 2.851562 -22.378906 3.1875 -21.921875 L 4.375 -20.078125 C 5.425781 -18.515625 6.117188 -17.453125 6.453125 -16.890625 C 7.191406 -15.671875 7.769531 -14.539062 8.1875 -13.5 C 8.519531 -12.675781 9.222656 -11.550781 10.296875 -10.125 L 13.6875 -18.421875 C 14.082031 -19.109375 14.617188 -20.164062 15.296875 -21.59375 C 15.578125 -22.269531 16.039062 -22.609375 16.6875 -22.609375 C 17.082031 -22.609375 17.4375 -22.46875 17.75 -22.1875 C 18.0625 -21.90625 18.21875 -21.546875 18.21875 -21.109375 C 18.21875 -20.660156 17.953125 -19.960938 17.421875 -19.015625 Z M 17.421875 -19.015625"/></g></g></g><g fill-opacity="1" fill="#ffffff"><g transform="translate(199.196463, 219.849156)"><g><path d="M 2 -3.703125 C 1.988281 -4.117188 2.128906 -4.457031 2.421875 -4.71875 C 2.710938 -4.976562 3.070312 -5.109375 3.5 -5.109375 C 3.976562 -5.109375 4.398438 -4.832031 4.765625 -4.28125 C 5.273438 -3.53125 5.726562 -3.019531 6.125 -2.75 C 6.96875 -2.195312 8.191406 -1.921875 9.796875 -1.921875 C 11.335938 -1.921875 12.765625 -2.253906 14.078125 -2.921875 C 15.765625 -3.765625 16.609375 -4.945312 16.609375 -6.46875 C 16.609375 -7.71875 15.898438 -8.703125 14.484375 -9.421875 C 13.285156 -10.046875 11.800781 -10.382812 10.03125 -10.4375 C 8.46875 -10.5 7.132812 -10.84375 6.03125 -11.46875 C 4.625 -12.269531 3.921875 -13.421875 3.921875 -14.921875 C 3.921875 -16.679688 4.921875 -18.289062 6.921875 -19.75 C 8.835938 -21.125 10.816406 -21.8125 12.859375 -21.8125 C 13.816406 -21.8125 14.90625 -21.648438 16.125 -21.328125 C 17.726562 -20.898438 18.53125 -20.351562 18.53125 -19.6875 C 18.53125 -18.8125 18.082031 -18.375 17.1875 -18.375 C 16.789062 -18.375 16.097656 -18.476562 15.109375 -18.6875 C 14.117188 -18.90625 13.347656 -19.007812 12.796875 -19 C 11.253906 -18.976562 9.941406 -18.597656 8.859375 -17.859375 C 7.753906 -17.097656 7.203125 -16.171875 7.203125 -15.078125 C 7.203125 -14.253906 7.929688 -13.675781 9.390625 -13.34375 C 9.941406 -13.207031 11 -13.085938 12.5625 -12.984375 C 14.832031 -12.816406 16.609375 -12.101562 17.890625 -10.84375 C 19.054688 -9.6875 19.640625 -8.28125 19.640625 -6.625 C 19.640625 -4.269531 18.550781 -2.390625 16.375 -0.984375 C 14.476562 0.234375 12.28125 0.84375 9.78125 0.84375 C 7.96875 0.84375 6.304688 0.5 4.796875 -0.1875 C 2.953125 -1.039062 2.019531 -2.210938 2 -3.703125 Z M 2 -3.703125"/></g></g></g><g fill-opacity="1" fill="#ffffff"><g transform="translate(101.296503, 232.662824)"><g><path d="M 3.59375 -2.328125 C 3.882812 -2.265625 4.109375 -2.132812 4.265625 -1.9375 C 4.429688 -1.75 4.515625 -1.503906 4.515625 -1.203125 C 4.515625 -0.816406 4.367188 -0.519531 4.078125 -0.3125 C 3.796875 -0.101562 3.378906 0 2.828125 0 L 0.734375 0 L 0.734375 -4.53125 L 2.6875 -4.53125 C 3.195312 -4.53125 3.585938 -4.425781 3.859375 -4.21875 C 4.140625 -4.019531 4.28125 -3.734375 4.28125 -3.359375 C 4.28125 -3.109375 4.21875 -2.894531 4.09375 -2.71875 C 3.96875 -2.550781 3.800781 -2.421875 3.59375 -2.328125 Z M 1.21875 -4.140625 L 1.21875 -2.484375 L 2.65625 -2.484375 C 3.019531 -2.484375 3.300781 -2.550781 3.5 -2.6875 C 3.695312 -2.832031 3.796875 -3.039062 3.796875 -3.3125 C 3.796875 -3.582031 3.695312 -3.785156 3.5 -3.921875 C 3.300781 -4.066406 3.019531 -4.140625 2.65625 -4.140625 Z M 2.8125 -0.390625 C 3.21875 -0.390625 3.523438 -0.457031 3.734375 -0.59375 C 3.941406 -0.738281 4.046875 -0.957031 4.046875 -1.25 C 4.046875 -1.8125 3.632812 -2.09375 2.8125 -2.09375 L 1.21875 -2.09375 L 1.21875 -0.390625 Z M 2.8125 -0.390625"/></g></g></g><g fill-opacity="1" fill="#ffffff"><g transform="translate(106.870541, 232.662824)"><g><path d="M 3.578125 -1.203125 L 1.046875 -1.203125 L 0.515625 0 L 0.015625 0 L 2.078125 -4.53125 L 2.5625 -4.53125 L 4.625 0 L 4.125 0 Z M 3.40625 -1.59375 L 2.3125 -4.03125 L 1.234375 -1.59375 Z M 3.40625 -1.59375"/></g></g></g><g fill-opacity="1" fill="#ffffff"><g transform="translate(112.205323, 232.662824)"><g><path d="M 0.734375 -4.53125 L 2.578125 -4.53125 C 3.054688 -4.53125 3.476562 -4.429688 3.84375 -4.234375 C 4.21875 -4.046875 4.503906 -3.78125 4.703125 -3.4375 C 4.898438 -3.09375 5 -2.703125 5 -2.265625 C 5 -1.828125 4.898438 -1.4375 4.703125 -1.09375 C 4.503906 -0.75 4.21875 -0.476562 3.84375 -0.28125 C 3.476562 -0.09375 3.054688 0 2.578125 0 L 0.734375 0 Z M 2.5625 -0.40625 C 2.957031 -0.40625 3.300781 -0.484375 3.59375 -0.640625 C 3.894531 -0.804688 4.125 -1.023438 4.28125 -1.296875 C 4.445312 -1.578125 4.53125 -1.898438 4.53125 -2.265625 C 4.53125 -2.628906 4.445312 -2.945312 4.28125 -3.21875 C 4.125 -3.5 3.894531 -3.71875 3.59375 -3.875 C 3.300781 -4.03125 2.957031 -4.109375 2.5625 -4.109375 L 1.21875 -4.109375 L 1.21875 -0.40625 Z M 2.5625 -0.40625"/></g></g></g><g fill-opacity="1" fill="#ffffff"><g transform="translate(118.244938, 232.662824)"><g><path d="M 5.4375 -4.53125 L 5.4375 0 L 4.984375 0 L 4.984375 -3.625 L 3.203125 -0.578125 L 2.96875 -0.578125 L 1.203125 -3.609375 L 1.203125 0 L 0.734375 0 L 0.734375 -4.53125 L 1.125 -4.53125 L 3.09375 -1.171875 L 5.046875 -4.53125 Z M 5.4375 -4.53125"/></g></g></g><g fill-opacity="1" fill="#ffffff"><g transform="translate(125.118724, 232.662824)"><g><path d="M 0.734375 -4.53125 L 1.21875 -4.53125 L 1.21875 0 L 0.734375 0 Z M 0.734375 -4.53125"/></g></g></g><g fill-opacity="1" fill="#ffffff"><g transform="translate(127.769945, 232.662824)"><g><path d="M 4.515625 -4.53125 L 4.515625 0 L 4.125 0 L 1.21875 -3.671875 L 1.21875 0 L 0.734375 0 L 0.734375 -4.53125 L 1.125 -4.53125 L 4.046875 -0.859375 L 4.046875 -4.53125 Z M 4.515625 -4.53125"/></g></g></g><g fill-opacity="1" fill="#ffffff"><g transform="translate(133.725504, 232.662824)"><g><path d="M 1.625 -4.109375 L 0.03125 -4.109375 L 0.03125 -4.53125 L 3.6875 -4.53125 L 3.6875 -4.109375 L 2.09375 -4.109375 L 2.09375 0 L 1.625 0 Z M 1.625 -4.109375"/></g></g></g><g fill-opacity="1" fill="#ffffff"><g transform="translate(138.135585, 232.662824)"><g><path d="M 2.71875 0.03125 C 2.269531 0.03125 1.863281 -0.0664062 1.5 -0.265625 C 1.132812 -0.460938 0.847656 -0.734375 0.640625 -1.078125 C 0.441406 -1.429688 0.34375 -1.828125 0.34375 -2.265625 C 0.34375 -2.703125 0.441406 -3.09375 0.640625 -3.4375 C 0.847656 -3.789062 1.132812 -4.066406 1.5 -4.265625 C 1.863281 -4.460938 2.269531 -4.5625 2.71875 -4.5625 C 3.164062 -4.5625 3.566406 -4.460938 3.921875 -4.265625 C 4.285156 -4.066406 4.570312 -3.789062 4.78125 -3.4375 C 4.988281 -3.09375 5.09375 -2.703125 5.09375 -2.265625 C 5.09375 -1.828125 4.988281 -1.429688 4.78125 -1.078125 C 4.570312 -0.734375 4.285156 -0.460938 3.921875 -0.265625 C 3.566406 -0.0664062 3.164062 0.03125 2.71875 0.03125 Z M 2.71875 -0.390625 C 3.070312 -0.390625 3.394531 -0.46875 3.6875 -0.625 C 3.976562 -0.789062 4.203125 -1.015625 4.359375 -1.296875 C 4.523438 -1.585938 4.609375 -1.910156 4.609375 -2.265625 C 4.609375 -2.617188 4.523438 -2.9375 4.359375 -3.21875 C 4.203125 -3.507812 3.976562 -3.734375 3.6875 -3.890625 C 3.394531 -4.054688 3.070312 -4.140625 2.71875 -4.140625 C 2.363281 -4.140625 2.039062 -4.054688 1.75 -3.890625 C 1.457031 -3.734375 1.226562 -3.507812 1.0625 -3.21875 C 0.894531 -2.9375 0.8125 -2.617188 0.8125 -2.265625 C 0.8125 -1.910156 0.894531 -1.585938 1.0625 -1.296875 C 1.226562 -1.015625 1.457031 -0.789062 1.75 -0.625 C 2.039062 -0.46875 2.363281 -0.390625 2.71875 -0.390625 Z M 2.71875 -0.390625"/></g></g></g><g fill-opacity="1" fill="#ffffff"><g transform="translate(144.259265, 232.662824)"><g><path d="M 4.515625 -4.53125 L 4.515625 0 L 4.125 0 L 1.21875 -3.671875 L 1.21875 0 L 0.734375 0 L 0.734375 -4.53125 L 1.125 -4.53125 L 4.046875 -0.859375 L 4.046875 -4.53125 Z M 4.515625 -4.53125"/></g></g></g><g fill-opacity="1" fill="#ffffff"><g transform="translate(150.214821, 232.662824)"><g/></g></g><g fill-opacity="1" fill="#ffffff"><g transform="translate(152.607389, 232.662824)"><g><path d="M 1.21875 -4.109375 L 1.21875 -2.328125 L 3.5625 -2.328125 L 3.5625 -1.921875 L 1.21875 -1.921875 L 1.21875 0 L 0.734375 0 L 0.734375 -4.53125 L 3.84375 -4.53125 L 3.84375 -4.109375 Z M 1.21875 -4.109375"/></g></g></g><g fill-opacity="1" fill="#ffffff"><g transform="translate(157.39899, 232.662824)"><g><path d="M 2.71875 0.03125 C 2.269531 0.03125 1.863281 -0.0664062 1.5 -0.265625 C 1.132812 -0.460938 0.847656 -0.734375 0.640625 -1.078125 C 0.441406 -1.429688 0.34375 -1.828125 0.34375 -2.265625 C 0.34375 -2.703125 0.441406 -3.09375 0.640625 -3.4375 C 0.847656 -3.789062 1.132812 -4.066406 1.5 -4.265625 C 1.863281 -4.460938 2.269531 -4.5625 2.71875 -4.5625 C 3.164062 -4.5625 3.566406 -4.460938 3.921875 -4.265625 C 4.285156 -4.066406 4.570312 -3.789062 4.78125 -3.4375 C 4.988281 -3.09375 5.09375 -2.703125 5.09375 -2.265625 C 5.09375 -1.828125 4.988281 -1.429688 4.78125 -1.078125 C 4.570312 -0.734375 4.285156 -0.460938 3.921875 -0.265625 C 3.566406 -0.0664062 3.164062 0.03125 2.71875 0.03125 Z M 2.71875 -0.390625 C 3.070312 -0.390625 3.394531 -0.46875 3.6875 -0.625 C 3.976562 -0.789062 4.203125 -1.015625 4.359375 -1.296875 C 4.523438 -1.585938 4.609375 -1.910156 4.609375 -2.265625 C 4.609375 -2.617188 4.523438 -2.9375 4.359375 -3.21875 C 4.203125 -3.507812 3.976562 -3.734375 3.6875 -3.890625 C 3.394531 -4.054688 3.070312 -4.140625 2.71875 -4.140625 C 2.363281 -4.140625 2.039062 -4.054688 1.75 -3.890625 C 1.457031 -3.734375 1.226562 -3.507812 1.0625 -3.21875 C 0.894531 -2.9375 0.8125 -2.617188 0.8125 -2.265625 C 0.8125 -1.910156 0.894531 -1.585938 1.0625 -1.296875 C 1.226562 -1.015625 1.457031 -0.789062 1.75 -0.625 C 2.039062 -0.46875 2.363281 -0.390625 2.71875 -0.390625 Z M 2.71875 -0.390625"/></g></g></g><g fill-opacity="1" fill="#ffffff"><g transform="translate(163.52267, 232.662824)"><g><path d="M 3.828125 0 L 2.796875 -1.453125 C 2.679688 -1.441406 2.5625 -1.4375 2.4375 -1.4375 L 1.21875 -1.4375 L 1.21875 0 L 0.734375 0 L 0.734375 -4.53125 L 2.4375 -4.53125 C 3.007812 -4.53125 3.457031 -4.390625 3.78125 -4.109375 C 4.113281 -3.835938 4.28125 -3.457031 4.28125 -2.96875 C 4.28125 -2.613281 4.191406 -2.316406 4.015625 -2.078125 C 3.835938 -1.835938 3.582031 -1.660156 3.25 -1.546875 L 4.359375 0 Z M 2.421875 -1.84375 C 2.867188 -1.84375 3.207031 -1.941406 3.4375 -2.140625 C 3.675781 -2.335938 3.796875 -2.613281 3.796875 -2.96875 C 3.796875 -3.34375 3.675781 -3.625 3.4375 -3.8125 C 3.207031 -4.007812 2.867188 -4.109375 2.421875 -4.109375 L 1.21875 -4.109375 L 1.21875 -1.84375 Z M 2.421875 -1.84375"/></g></g></g><g fill-opacity="1" fill="#ffffff"><g transform="translate(168.896244, 232.662824)"><g/></g></g><g fill-opacity="1" fill="#ffffff"><g transform="translate(171.288811, 232.662824)"><g><path d="M 2.703125 0.03125 C 2.253906 0.03125 1.847656 -0.0664062 1.484375 -0.265625 C 1.128906 -0.460938 0.847656 -0.734375 0.640625 -1.078125 C 0.441406 -1.429688 0.34375 -1.828125 0.34375 -2.265625 C 0.34375 -2.703125 0.441406 -3.09375 0.640625 -3.4375 C 0.847656 -3.789062 1.128906 -4.066406 1.484375 -4.265625 C 1.847656 -4.460938 2.253906 -4.5625 2.703125 -4.5625 C 3.046875 -4.5625 3.359375 -4.503906 3.640625 -4.390625 C 3.921875 -4.285156 4.160156 -4.125 4.359375 -3.90625 L 4.0625 -3.609375 C 3.707031 -3.960938 3.257812 -4.140625 2.71875 -4.140625 C 2.363281 -4.140625 2.039062 -4.054688 1.75 -3.890625 C 1.457031 -3.722656 1.226562 -3.5 1.0625 -3.21875 C 0.894531 -2.9375 0.8125 -2.617188 0.8125 -2.265625 C 0.8125 -1.910156 0.894531 -1.585938 1.0625 -1.296875 C 1.226562 -1.015625 1.457031 -0.789062 1.75 -0.625 C 2.039062 -0.46875 2.363281 -0.390625 2.71875 -0.390625 C 3.257812 -0.390625 3.707031 -0.570312 4.0625 -0.9375 L 4.359375 -0.625 C 4.160156 -0.40625 3.914062 -0.238281 3.625 -0.125 C 3.34375 -0.0195312 3.035156 0.03125 2.703125 0.03125 Z M 2.703125 0.03125"/></g></g></g><g fill-opacity="1" fill="#ffffff"><g transform="translate(176.636531, 232.662824)"><g><path d="M 4.515625 -4.53125 L 4.515625 0 L 4.046875 0 L 4.046875 -2.09375 L 1.21875 -2.09375 L 1.21875 0 L 0.734375 0 L 0.734375 -4.53125 L 1.21875 -4.53125 L 1.21875 -2.515625 L 4.046875 -2.515625 L 4.046875 -4.53125 Z M 4.515625 -4.53125"/></g></g></g><g fill-opacity="1" fill="#ffffff"><g transform="translate(182.592091, 232.662824)"><g><path d="M 3.578125 -1.203125 L 1.046875 -1.203125 L 0.515625 0 L 0.015625 0 L 2.078125 -4.53125 L 2.5625 -4.53125 L 4.625 0 L 4.125 0 Z M 3.40625 -1.59375 L 2.3125 -4.03125 L 1.234375 -1.59375 Z M 3.40625 -1.59375"/></g></g></g><g fill-opacity="1" fill="#ffffff"><g transform="translate(187.926876, 232.662824)"><g><path d="M 5.4375 -4.53125 L 5.4375 0 L 4.984375 0 L 4.984375 -3.625 L 3.203125 -0.578125 L 2.96875 -0.578125 L 1.203125 -3.609375 L 1.203125 0 L 0.734375 0 L 0.734375 -4.53125 L 1.125 -4.53125 L 3.09375 -1.171875 L 5.046875 -4.53125 Z M 5.4375 -4.53125"/></g></g></g><g fill-opacity="1" fill="#ffffff"><g transform="translate(194.800665, 232.662824)"><g><path d="M 2.4375 -4.53125 C 3.007812 -4.53125 3.457031 -4.390625 3.78125 -4.109375 C 4.113281 -3.835938 4.28125 -3.457031 4.28125 -2.96875 C 4.28125 -2.488281 4.113281 -2.109375 3.78125 -1.828125 C 3.457031 -1.554688 3.007812 -1.421875 2.4375 -1.421875 L 1.21875 -1.421875 L 1.21875 0 L 0.734375 0 L 0.734375 -4.53125 Z M 2.421875 -1.84375 C 2.867188 -1.84375 3.207031 -1.941406 3.4375 -2.140625 C 3.675781 -2.335938 3.796875 -2.613281 3.796875 -2.96875 C 3.796875 -3.34375 3.675781 -3.625 3.4375 -3.8125 C 3.207031 -4.007812 2.867188 -4.109375 2.421875 -4.109375 L 1.21875 -4.109375 L 1.21875 -1.84375 Z M 2.421875 -1.84375"/></g></g></g><g fill-opacity="1" fill="#ffffff"><g transform="translate(200.141914, 232.662824)"><g><path d="M 1.984375 0.03125 C 1.648438 0.03125 1.328125 -0.0195312 1.015625 -0.125 C 0.710938 -0.226562 0.472656 -0.367188 0.296875 -0.546875 L 0.484375 -0.921875 C 0.648438 -0.753906 0.867188 -0.617188 1.140625 -0.515625 C 1.410156 -0.421875 1.691406 -0.375 1.984375 -0.375 C 2.390625 -0.375 2.691406 -0.445312 2.890625 -0.59375 C 3.097656 -0.738281 3.203125 -0.929688 3.203125 -1.171875 C 3.203125 -1.347656 3.144531 -1.488281 3.03125 -1.59375 C 2.925781 -1.707031 2.789062 -1.789062 2.625 -1.84375 C 2.46875 -1.90625 2.25 -1.972656 1.96875 -2.046875 C 1.625 -2.128906 1.347656 -2.207031 1.140625 -2.28125 C 0.941406 -2.363281 0.769531 -2.488281 0.625 -2.65625 C 0.476562 -2.820312 0.40625 -3.046875 0.40625 -3.328125 C 0.40625 -3.554688 0.46875 -3.765625 0.59375 -3.953125 C 0.71875 -4.140625 0.90625 -4.285156 1.15625 -4.390625 C 1.40625 -4.503906 1.710938 -4.5625 2.078125 -4.5625 C 2.335938 -4.5625 2.59375 -4.523438 2.84375 -4.453125 C 3.09375 -4.390625 3.304688 -4.296875 3.484375 -4.171875 L 3.328125 -3.78125 C 3.140625 -3.90625 2.9375 -4 2.71875 -4.0625 C 2.5 -4.125 2.285156 -4.15625 2.078125 -4.15625 C 1.679688 -4.15625 1.382812 -4.078125 1.1875 -3.921875 C 0.988281 -3.773438 0.890625 -3.582031 0.890625 -3.34375 C 0.890625 -3.15625 0.941406 -3.003906 1.046875 -2.890625 C 1.160156 -2.785156 1.300781 -2.703125 1.46875 -2.640625 C 1.632812 -2.585938 1.859375 -2.523438 2.140625 -2.453125 C 2.460938 -2.367188 2.726562 -2.285156 2.9375 -2.203125 C 3.144531 -2.128906 3.316406 -2.007812 3.453125 -1.84375 C 3.597656 -1.6875 3.671875 -1.472656 3.671875 -1.203125 C 3.671875 -0.972656 3.609375 -0.765625 3.484375 -0.578125 C 3.367188 -0.390625 3.179688 -0.238281 2.921875 -0.125 C 2.671875 -0.0195312 2.359375 0.03125 1.984375 0.03125 Z M 1.984375 0.03125"/></g></g></g></svg>